<svg xmlns="http://www.w3.org/2000/svg" version="1.1" xmlns:xlink="http://www.w3.org/1999/xlink" xmlns:svgjs="http://svgjs.com/svgjs" width="1440" height="560" preserveAspectRatio="none" viewBox="0 0 1440 560">
    <g mask="url(&quot;#SvgjsMask2136&quot;)" fill="none">
      <rect width="1440" height="560" x="0" y="0" fill="rgba(54, 91, 130, 1)"></rect>
      <use xlink:href="#IconGrid" transform="translate(0, 0)" ></use>
    </g>
    <defs>

        <g id="AWSIcon">
          <path d="M72.392053,55.4384106 C72.392053,58.5748344 72.7311258,61.1178808 73.3245033,62.9827815 C74.002649,64.8476821 74.8503311,66.8821192 76.0370861,69.0860927 C76.4609272,69.7642384 76.6304636,70.4423841 76.6304636,71.0357616 C76.6304636,71.8834437 76.1218543,72.7311258 75.0198675,73.5788079 L69.6794702,77.1390728 C68.9165563,77.6476821 68.1536424,77.9019868 67.4754967,77.9019868 C66.6278146,77.9019868 65.7801325,77.4781457 64.9324503,76.7152318 C63.7456954,75.4437086 62.7284768,74.0874172 61.8807947,72.7311258 C61.0331126,71.2900662 60.1854305,69.6794702 59.2529801,67.7298013 C52.6410596,75.5284768 44.3337748,79.4278146 34.3311258,79.4278146 C27.210596,79.4278146 21.5311258,77.3933775 17.3774834,73.3245033 C13.2238411,69.2556291 11.1046358,63.8304636 11.1046358,57.0490066 C11.1046358,49.8437086 13.6476821,43.994702 18.818543,39.586755 C23.989404,35.1788079 30.8556291,32.9748344 39.586755,32.9748344 C42.4688742,32.9748344 45.4357616,33.2291391 48.5721854,33.6529801 C51.7086093,34.0768212 54.9298013,34.7549669 58.3205298,35.5178808 L58.3205298,29.3298013 C58.3205298,22.8874172 56.9642384,18.394702 54.3364238,15.7668874 C51.6238411,13.1390728 47.0463576,11.8675497 40.5192053,11.8675497 C37.5523179,11.8675497 34.5006623,12.2066225 31.3642384,12.9695364 C28.2278146,13.7324503 25.1761589,14.6649007 22.2092715,15.8516556 C20.8529801,16.4450331 19.8357616,16.784106 19.2423841,16.9536424 C18.6490066,17.1231788 18.2251656,17.207947 17.8860927,17.207947 C16.6993377,17.207947 16.1059603,16.3602649 16.1059603,14.5801325 L16.1059603,10.4264901 C16.1059603,9.07019868 16.2754967,8.05298013 16.6993377,7.45960265 C17.1231788,6.86622517 17.8860927,6.27284768 19.0728477,5.6794702 C22.0397351,4.15364238 25.6,2.88211921 29.7536424,1.86490066 C33.9072848,0.762913907 38.3152318,0.254304636 42.9774834,0.254304636 C53.0649007,0.254304636 60.4397351,2.54304636 65.186755,7.1205298 C69.8490066,11.6980132 72.2225166,18.6490066 72.2225166,27.9735099 L72.2225166,55.4384106 L72.392053,55.4384106 Z M37.9761589,68.3231788 C40.7735099,68.3231788 43.6556291,67.8145695 46.7072848,66.797351 C49.7589404,65.7801325 52.4715232,63.9152318 54.7602649,61.3721854 C56.1165563,59.7615894 57.1337748,57.981457 57.6423841,55.9470199 C58.1509934,53.9125828 58.4900662,51.4543046 58.4900662,48.5721854 L58.4900662,45.0119205 C56.0317881,44.418543 53.4039735,43.9099338 50.6913907,43.5708609 C47.9788079,43.2317881 45.3509934,43.0622517 42.7231788,43.0622517 C37.0437086,43.0622517 32.8900662,44.1642384 30.0927152,46.4529801 C27.2953642,48.7417219 25.9390728,51.9629139 25.9390728,56.2013245 C25.9390728,60.1854305 26.9562914,63.1523179 29.0754967,65.186755 C31.1099338,67.3059603 34.0768212,68.3231788 37.9761589,68.3231788 Z M106.045033,77.4781457 C104.519205,77.4781457 103.501987,77.2238411 102.823841,76.6304636 C102.145695,76.1218543 101.552318,74.9350993 101.043709,73.3245033 L81.1231788,7.7986755 C80.6145695,6.10331126 80.3602649,5.0013245 80.3602649,4.40794702 C80.3602649,3.05165563 81.0384106,2.28874172 82.394702,2.28874172 L90.7019868,2.28874172 C92.3125828,2.28874172 93.4145695,2.54304636 94.007947,3.13642384 C94.6860927,3.64503311 95.194702,4.83178808 95.7033113,6.44238411 L109.944371,62.5589404 L123.168212,6.44238411 C123.592053,4.74701987 124.100662,3.64503311 124.778808,3.13642384 C125.456954,2.62781457 126.643709,2.28874172 128.169536,2.28874172 L134.950993,2.28874172 C136.561589,2.28874172 137.663576,2.54304636 138.341722,3.13642384 C139.019868,3.64503311 139.613245,4.83178808 139.952318,6.44238411 L153.345695,63.2370861 L168.010596,6.44238411 C168.519205,4.74701987 169.112583,3.64503311 169.70596,3.13642384 C170.384106,2.62781457 171.486093,2.28874172 173.011921,2.28874172 L180.895364,2.28874172 C182.251656,2.28874172 183.01457,2.96688742 183.01457,4.40794702 C183.01457,4.83178808 182.929801,5.25562914 182.845033,5.76423841 C182.760265,6.27284768 182.590728,6.95099338 182.251656,7.88344371 L161.822517,73.4092715 C161.313907,75.1046358 160.72053,76.2066225 160.042384,76.7152318 C159.364238,77.2238411 158.262252,77.5629139 156.821192,77.5629139 L149.531126,77.5629139 C147.92053,77.5629139 146.818543,77.3086093 146.140397,76.7152318 C145.462252,76.1218543 144.868874,75.0198675 144.529801,73.3245033 L131.390728,18.6490066 L118.336424,73.2397351 C117.912583,74.9350993 117.403974,76.0370861 116.725828,76.6304636 C116.047682,77.2238411 114.860927,77.4781457 113.335099,77.4781457 L106.045033,77.4781457 Z M214.972185,79.7668874 C210.564238,79.7668874 206.156291,79.2582781 201.917881,78.2410596 C197.67947,77.2238411 194.37351,76.1218543 192.169536,74.8503311 C190.813245,74.0874172 189.880795,73.2397351 189.541722,72.4768212 C189.202649,71.7139073 189.033113,70.8662252 189.033113,70.1033113 L189.033113,65.7801325 C189.033113,64 189.711258,63.1523179 190.982781,63.1523179 C191.491391,63.1523179 192,63.2370861 192.508609,63.4066225 C193.017219,63.5761589 193.780132,63.9152318 194.627815,64.2543046 C197.509934,65.5258278 200.646358,66.5430464 203.952318,67.2211921 C207.343046,67.8993377 210.649007,68.2384106 214.039735,68.2384106 C219.380132,68.2384106 223.533775,67.3059603 226.415894,65.4410596 C229.298013,63.5761589 230.823841,60.8635762 230.823841,57.3880795 C230.823841,55.0145695 230.060927,53.0649007 228.535099,51.4543046 C227.009272,49.8437086 224.127152,48.402649 219.97351,47.0463576 L207.682119,43.2317881 C201.49404,41.2821192 196.916556,38.4 194.119205,34.5854305 C191.321854,30.8556291 189.880795,26.7019868 189.880795,22.2940397 C189.880795,18.7337748 190.643709,15.597351 192.169536,12.8847682 C193.695364,10.1721854 195.729801,7.7986755 198.272848,5.93377483 C200.815894,3.98410596 203.698013,2.54304636 207.088742,1.52582781 C210.47947,0.508609272 214.039735,0.0847682119 217.769536,0.0847682119 C219.634437,0.0847682119 221.584106,0.169536424 223.449007,0.42384106 C225.398675,0.678145695 227.178808,1.01721854 228.95894,1.35629139 C230.654305,1.78013245 232.264901,2.20397351 233.790728,2.71258278 C235.316556,3.22119205 236.503311,3.72980132 237.350993,4.2384106 C238.537748,4.91655629 239.38543,5.59470199 239.89404,6.35761589 C240.402649,7.03576159 240.656954,7.96821192 240.656954,9.15496689 L240.656954,13.1390728 C240.656954,14.9192053 239.978808,15.8516556 238.707285,15.8516556 C238.029139,15.8516556 236.927152,15.5125828 235.486093,14.8344371 C230.654305,12.6304636 225.229139,11.5284768 219.210596,11.5284768 C214.378808,11.5284768 210.564238,12.2913907 207.936424,13.9019868 C205.308609,15.5125828 203.952318,17.9708609 203.952318,21.4463576 C203.952318,23.8198675 204.8,25.8543046 206.495364,27.4649007 C208.190728,29.0754967 211.327152,30.6860927 215.819868,32.1271523 L227.856954,35.9417219 C233.960265,37.8913907 238.368212,40.6039735 240.996026,44.0794702 C243.623841,47.5549669 244.895364,51.5390728 244.895364,55.9470199 C244.895364,59.592053 244.13245,62.8980132 242.691391,65.7801325 C241.165563,68.6622517 239.131126,71.205298 236.503311,73.2397351 C233.875497,75.3589404 230.739073,76.8847682 227.09404,77.986755 C223.27947,79.1735099 219.295364,79.7668874 214.972185,79.7668874 Z" fill="#252F3E" fill-rule="nonzero"></path>
          <path d="M230.993377,120.964238 C203.104636,141.562914 162.58543,152.498013 127.745695,152.498013 C78.9192053,152.498013 34.9245033,134.442384 1.69536424,104.434437 C-0.932450331,102.060927 1.4410596,98.8397351 4.57748344,100.704636 C40.5192053,121.557616 84.8529801,134.188079 130.712583,134.188079 C161.65298,134.188079 195.645033,127.745695 226.924503,114.521854 C231.586755,112.402649 235.570861,117.57351 230.993377,120.964238 Z M242.606623,107.740397 C239.046358,103.162914 219.04106,105.536424 209.970861,106.638411 C207.258278,106.977483 206.834437,104.603974 209.292715,102.823841 C225.229139,91.6344371 251.422517,94.8556291 254.474172,98.5854305 C257.525828,102.4 253.62649,128.593377 238.707285,141.139073 C236.418543,143.088742 234.21457,142.071523 235.231788,139.528477 C238.622517,131.136424 246.166887,112.233113 242.606623,107.740397 Z" fill="#FF9900"></path>
		    </g>
        <g id="DockerIcon">
          <path d="M250.715745,70.4971666 C244.951102,66.4973277 231.740464,64.997388 221.412146,66.9973071 C220.211179,56.9977092 214.68673,48.2480609 205.078993,40.4983724 L199.554544,36.4985331 L195.711449,42.248302 C190.90758,49.7480006 188.505646,60.2475786 189.226226,70.2471769 C189.46642,73.7470364 190.667387,79.9967847 194.270289,85.496564 C190.90758,87.4964838 183.941971,89.996383 174.814621,89.996383 L1.15476998,89.996383 L0.674383104,91.9963028 C-1.00697093,101.9959 -1.00697093,133.244645 18.6888904,157.243681 C33.5808831,175.492947 55.6786788,184.742575 84.7420842,184.742575 C147.672763,184.742575 194.270289,154.493791 216.127891,99.7459909 C224.774854,99.9959813 243.269748,99.7459909 252.637292,80.996745 C252.877486,80.4967649 253.357872,79.4968046 255.039227,75.7469554 L256,73.7470364 L250.715745,70.4971666 L250.715745,70.4971666 Z M139.986573,0 L113.565295,0 L113.565295,24.9989952 L139.986573,24.9989952 L139.986573,0 L139.986573,0 Z M139.986573,29.9987943 L113.565295,29.9987943 L113.565295,54.9977896 L139.986573,54.9977896 L139.986573,29.9987943 L139.986573,29.9987943 Z M108.761427,29.9987943 L82.3401495,29.9987943 L82.3401495,54.9977896 L108.761427,54.9977896 L108.761427,29.9987943 L108.761427,29.9987943 Z M77.5362814,29.9987943 L51.1150037,29.9987943 L51.1150037,54.9977896 L77.5362814,54.9977896 L77.5362814,29.9987943 L77.5362814,29.9987943 Z M46.311135,59.9975886 L19.8898576,59.9975886 L19.8898576,84.9965839 L46.311135,84.9965839 L46.311135,59.9975886 L46.311135,59.9975886 Z M77.5362814,59.9975886 L51.1150037,59.9975886 L51.1150037,84.9965839 L77.5362814,84.9965839 L77.5362814,59.9975886 L77.5362814,59.9975886 Z M108.761427,59.9975886 L82.3401495,59.9975886 L82.3401495,84.9965839 L108.761427,84.9965839 L108.761427,59.9975886 L108.761427,59.9975886 Z M139.986573,59.9975886 L113.565295,59.9975886 L113.565295,84.9965839 L139.986573,84.9965839 L139.986573,59.9975886 L139.986573,59.9975886 Z M171.211719,59.9975886 L144.790441,59.9975886 L144.790441,84.9965839 L171.211719,84.9965839 L171.211719,59.9975886 L171.211719,59.9975886 Z" fill="#2396ED" fill-rule="nonzero"></path>
        </g>
        <g id="GitIcon">
          <path d="M251.172245,116.593517 L139.398753,4.82845302 C132.966433,-1.60948434 122.525852,-1.60948434 116.085106,4.82845302 L92.8753863,28.0381721 L122.317995,57.4807809 C129.16041,55.1690784 137.005593,56.7195763 142.460425,62.1744081 C147.940536,67.6629464 149.479799,75.5755422 147.111919,82.4404282 L175.487156,110.815665 C182.352042,108.450594 190.273064,109.98143 195.755985,115.472777 C203.418591,123.132574 203.418591,135.547794 195.755985,143.213209 C188.09057,150.878624 175.67535,150.878624 168.007126,143.213209 C162.243319,137.443783 160.81922,128.977839 163.737639,121.877008 L137.275245,95.4146135 L137.272436,165.052198 C139.140337,165.979126 140.904309,167.212221 142.460425,168.762719 C150.123031,176.422516 150.123031,188.837736 142.460425,196.508768 C134.79501,204.171375 122.374173,204.171375 114.719993,196.508768 C107.057387,188.837736 107.057387,176.422516 114.719993,168.762719 C116.613174,166.872347 118.804095,165.442631 121.141077,164.481996 L121.141077,94.1955625 C118.804095,93.2405457 116.615983,91.8192558 114.719993,89.9148396 C108.914052,84.1173254 107.518042,75.5980132 110.492639,68.4690928 L81.4713611,39.4421974 L4.83125614,116.076685 C-1.60949009,122.52024 -1.60949009,132.960821 4.83125614,139.398759 L116.604747,251.166631 C123.039876,257.604569 133.477648,257.604569 139.921203,251.166631 L251.172245,139.9184 C257.61018,133.477654 257.61018,123.031455 251.172245,116.593517" fill="#DE4C36"></path>
        </g>
        <g id="TerraformIcon">
          <polygon fill="#4040B2" points="176.485057 188.994162 256.000302 143.127442 256.000302 51.2485453 176.485057 97.2122358"></polygon>
          <path d="M88.2425283,51.2485453 L167.757774,97.2122358 L167.757774,188.994162 L88.2425283,143.078957 M0,91.8304113 L79.5152453,137.745617 L79.5152453,45.9152057 L0,0 M88.2425283,244.994228 L167.757774,290.909434 L167.757774,199.079023 L88.2425283,153.163817" fill="#5C4EE5"></path>
        </g>
        <g id="GolangIcon">
          <path d="M292.533152,13.2950639 L293.657233,14.0455076 C306.869315,22.7704678 316.342129,34.7361275 322.574244,49.1946331 C324.069951,51.4381943 323.072813,52.6846171 320.081398,53.4324709 L315.017741,54.7277932 C303.571167,57.6768058 294.487155,60.1566573 283.191384,63.10567 L276.74841,64.7843862 C274.428264,65.3583626 273.787695,65.1170696 271.320433,62.3073717 L270.972336,61.9081465 C267.453024,57.9195933 264.816991,55.2559574 260.154613,52.878088 L259.255961,52.4353326 C243.551033,44.7075107 228.344673,46.9510719 214.135452,56.1746012 C197.184101,67.1431227 188.459141,83.3466202 188.708425,103.538671 C188.95771,123.481438 202.668362,139.93422 222.361843,142.67635 C239.313195,144.919911 253.522416,138.937081 264.740222,126.223568 C266.983783,123.481438 268.978059,120.490023 271.470905,117.000039 L223.358982,117.000039 C218.124006,117.000039 216.877583,113.759339 218.622575,109.521501 L219.486848,107.487264 C222.690544,100.033179 227.659682,89.3185944 230.887235,83.1925665 L231.591356,81.8743455 C232.452883,80.3801337 234.202861,78.3609287 237.568203,78.3609287 L317.791861,78.3603482 C321.394911,66.9456209 327.24084,56.159659 335.038473,45.9539335 C353.236247,22.0226141 375.17329,9.55838523 404.838154,4.32340907 C430.265181,-0.163713323 454.196501,2.32913245 475.884259,17.0369225 C495.577741,30.4982897 507.792685,48.6960639 511.033385,72.6273834 C515.271222,106.280802 505.549124,133.702105 482.365658,157.134856 C465.912876,173.836922 445.720825,184.306875 422.537359,189.043282 C415.806676,190.289704 409.075992,190.538989 402.594593,191.286843 C379.909697,190.788274 359.219077,184.306875 341.769156,169.3498 C329.496056,158.740849 321.041799,145.701725 316.840932,130.522127 C313.926247,136.409796 310.44016,142.04853 306.370746,147.412757 C288.422257,171.094792 264.989506,185.802582 235.324641,189.791135 C210.894753,193.031835 188.209856,188.295428 168.26709,173.338353 C149.820031,159.378417 139.350079,140.931358 136.607949,117.997177 C133.367249,90.8251575 141.344356,66.3952689 157.797138,44.9567952 C175.496343,21.7733295 198.929093,7.06553943 227.59682,1.8305633 C250.59563,-2.32879605 272.633891,0.235689133 292.533152,13.2950639 L292.533152,13.2950639 Z M411.120284,49.0171223 L410.322415,49.1946331 C387.138949,54.4296092 372.181875,69.1373993 366.697614,92.5701496 C362.210492,112.014347 371.683306,131.707829 389.631795,139.684935 C403.342447,145.667765 417.053099,144.919911 430.265181,138.189228 C449.958663,127.96856 460.6779,112.014347 461.924323,90.575873 C461.675038,87.3351735 461.675038,84.8423277 461.176469,82.3494819 C456.739764,57.9476028 434.511926,44.025432 411.120284,49.0171223 L411.120284,49.0171223 Z M116.415898,94.5644262 C117.413036,94.5644262 117.911605,95.3122799 117.911605,96.3094183 L117.413036,102.292248 C117.413036,103.289387 116.415898,104.03724 115.668044,104.03724 L61.3240061,103.787956 C60.3268678,103.787956 60.0775833,103.040102 60.5761524,102.292248 L64.0661365,96.0601337 C64.5647057,95.3122799 65.561844,94.5644262 66.5589823,94.5644262 L116.415898,94.5644262 Z M121.900159,71.6302451 C122.897297,71.6302451 123.395866,72.3780988 123.146581,73.1259525 L121.152305,79.1087824 C120.90302,80.1059207 119.905882,80.6044899 118.908744,80.6044899 L0.99713831,80.8537744 C0,80.8537744 -0.249284578,80.3552053 0.249284578,79.6073515 L5.48426071,72.8766679 C5.98282987,72.1288142 7.22925276,71.6302451 8.22639107,71.6302451 L121.900159,71.6302451 Z M134.862957,48.6960639 C135.860095,48.6960639 136.109379,49.4439176 135.61081,50.1917714 L131.372973,56.6731704 C130.874403,57.4210241 129.62798,58.1688779 128.880127,58.1688779 L38.6391096,57.9195933 C37.6419713,57.9195933 37.3926867,57.4210241 37.8912558,56.6731704 L43.126232,49.9424868 C43.6248011,49.1946331 44.871224,48.6960639 45.8683623,48.6960639 L134.862957,48.6960639 Z" fill="#00ACD7" fill-rule="nonzero"></path>
        </g>
        <g id="KubernetesIcon">
          <path d="M82.0851613,244.934194 C76.1393548,244.934194 70.523871,242.291613 66.7251613,237.501935 L8.91870968,165.656774 C5.12,160.867097 3.63354839,154.756129 5.12,148.810323 L25.7651613,59.1277419 C27.0864516,53.1819355 31.0503226,48.3922581 36.5006452,45.7496774 L120.072258,5.78064516 C122.714839,4.45935484 125.687742,3.79870968 128.660645,3.79870968 C131.633548,3.79870968 134.606452,4.45935484 137.249032,5.78064516 L220.820645,45.5845161 C226.270968,48.2270968 230.234839,53.0167742 231.556129,58.9625806 L252.20129,148.645161 C253.522581,154.590968 252.20129,160.701935 248.402581,165.491613 L190.596129,237.336774 C186.797419,241.96129 181.181935,244.769032 175.236129,244.769032 L82.0851613,244.934194 L82.0851613,244.934194 Z" fill="#326DE6"></path>
          <path d="M128.495484,7.92774194 C130.807742,7.92774194 133.12,8.42322581 135.267097,9.41419355 L218.83871,49.2180645 C223.132903,51.3651613 226.436129,55.3290323 227.427097,59.9535484 L248.072258,149.636129 C249.228387,154.425806 248.072258,159.380645 244.934194,163.179355 L187.127742,235.024516 C184.154839,238.823226 179.530323,240.970323 174.740645,240.970323 L82.0851613,240.970323 C77.2954839,240.970323 72.6709677,238.823226 69.6980645,235.024516 L11.8916129,163.179355 C8.91870968,159.380645 7.76258065,154.425806 8.75354839,149.636129 L29.3987097,59.9535484 C30.5548387,55.163871 33.6929032,51.2 37.9870968,49.2180645 L121.55871,9.24903226 C123.705806,8.42322581 126.183226,7.92774194 128.495484,7.92774194 L128.495484,7.92774194 Z M128.495484,0.16516129 L128.495484,0.16516129 C125.027097,0.16516129 121.55871,0.990967742 118.255484,2.47741935 L34.683871,42.4464516 C28.0774194,45.5845161 23.4529032,51.3651613 21.8012903,58.4670968 L1.15612903,148.149677 C-0.495483871,155.251613 1.15612903,162.51871 5.78064516,168.299355 L63.5870968,240.144516 C68.0464516,245.76 74.8180645,248.898065 81.92,248.898065 L174.575484,248.898065 C181.677419,248.898065 188.449032,245.76 192.908387,240.144516 L250.714839,168.299355 C255.339355,162.683871 256.990968,155.251613 255.339355,148.149677 L234.694194,58.4670968 C233.042581,51.3651613 228.418065,45.5845161 221.811613,42.4464516 L138.570323,2.47741935 C135.432258,0.990967742 131.963871,0.16516129 128.495484,0.16516129 L128.495484,0.16516129 L128.495484,0.16516129 Z" fill="#FFFFFF"></path>
          <path d="M212.232258,142.534194 L212.232258,142.534194 L212.232258,142.534194 C212.067097,142.534194 212.067097,142.534194 212.232258,142.534194 L212.067097,142.534194 C211.901935,142.534194 211.736774,142.534194 211.736774,142.369032 C211.406452,142.369032 211.076129,142.203871 210.745806,142.203871 C209.589677,142.03871 208.59871,141.873548 207.607742,141.873548 C207.112258,141.873548 206.616774,141.873548 205.956129,141.708387 L205.790968,141.708387 C202.322581,141.378065 199.514839,141.047742 196.872258,140.221935 C195.716129,139.726452 195.385806,139.065806 195.055484,138.405161 C195.055484,138.24 194.890323,138.24 194.890323,138.074839 L194.890323,138.074839 L192.743226,137.414194 C193.734194,129.816774 193.403871,121.889032 191.587097,114.126452 C189.770323,106.363871 186.632258,99.0967742 182.338065,92.4903226 L183.989677,91.003871 L183.989677,90.6735484 C183.989677,89.8477419 184.154839,89.0219355 184.815484,88.196129 C186.797419,86.3793548 189.274839,84.8929032 192.247742,83.076129 L192.247742,83.076129 C192.743226,82.7458065 193.23871,82.5806452 193.734194,82.2503226 C194.725161,81.7548387 195.550968,81.2593548 196.541935,80.5987097 C196.707097,80.4335484 197.037419,80.2683871 197.367742,79.9380645 C197.532903,79.7729032 197.698065,79.7729032 197.698065,79.6077419 L197.698065,79.6077419 C200.010323,77.6258065 200.505806,74.3225806 198.854194,72.1754839 C198.028387,71.0193548 196.541935,70.3587097 195.055484,70.3587097 C193.734194,70.3587097 192.578065,70.8541935 191.421935,71.68 L191.421935,71.68 L191.421935,71.68 C191.256774,71.8451613 191.256774,71.8451613 191.091613,72.0103226 C190.76129,72.1754839 190.596129,72.5058065 190.265806,72.6709677 C189.44,73.4967742 188.779355,74.1574194 188.11871,74.9832258 C187.788387,75.3135484 187.458065,75.8090323 186.962581,76.1393548 L186.962581,76.1393548 C184.650323,78.6167742 182.503226,80.5987097 180.356129,82.0851613 C179.860645,82.4154839 179.365161,82.5806452 178.869677,82.5806452 C178.539355,82.5806452 178.209032,82.5806452 177.87871,82.4154839 L177.548387,82.4154839 L177.548387,82.4154839 L175.566452,83.7367742 C173.419355,81.4245161 171.107097,79.4425806 168.794839,77.4606452 C158.885161,69.6980645 146.828387,64.9083871 134.276129,63.7522581 L134.110968,61.6051613 C133.945806,61.44 133.945806,61.44 133.780645,61.2748387 C133.285161,60.7793548 132.624516,60.283871 132.459355,59.1277419 C132.294194,56.4851613 132.624516,53.5122581 132.954839,50.2090323 L132.954839,50.043871 C132.954839,49.5483871 133.12,48.8877419 133.285161,48.3922581 C133.450323,47.4012903 133.615484,46.4103226 133.780645,45.2541935 L133.780645,44.2632258 L133.780645,43.7677419 L133.780645,43.7677419 L133.780645,43.7677419 C133.780645,40.7948387 131.468387,38.3174194 128.660645,38.3174194 C127.339355,38.3174194 126.018065,38.9780645 125.027097,39.9690323 C124.036129,40.96 123.540645,42.2812903 123.540645,43.7677419 L123.540645,43.7677419 L123.540645,43.7677419 L123.540645,44.0980645 L123.540645,45.0890323 C123.540645,46.2451613 123.705806,47.236129 124.036129,48.2270968 C124.20129,48.7225806 124.20129,49.2180645 124.366452,49.8787097 L124.366452,50.043871 C124.696774,53.3470968 125.192258,56.32 124.861935,58.9625806 C124.696774,60.1187097 124.036129,60.6141935 123.540645,61.1096774 C123.375484,61.2748387 123.375484,61.2748387 123.210323,61.44 L123.210323,61.44 L123.045161,63.5870968 C120.072258,63.9174194 117.099355,64.2477419 114.126452,64.9083871 C101.409032,67.716129 90.1780645,74.1574194 81.4245161,83.4064516 L79.7729032,82.2503226 L79.4425806,82.2503226 C79.1122581,82.2503226 78.7819355,82.4154839 78.4516129,82.4154839 C77.956129,82.4154839 77.4606452,82.2503226 76.9651613,81.92 C74.8180645,80.4335484 72.6709677,78.2864516 70.3587097,75.8090323 L70.3587097,75.8090323 C70.0283871,75.4787097 69.6980645,74.9832258 69.2025806,74.6529032 C68.5419355,73.8270968 67.8812903,73.1664516 67.0554839,72.3406452 C66.8903226,72.1754839 66.56,72.0103226 66.2296774,71.68 C66.0645161,71.5148387 65.8993548,71.5148387 65.8993548,71.3496774 L65.8993548,71.3496774 C64.9083871,70.523871 63.5870968,70.0283871 62.2658065,70.0283871 C60.7793548,70.0283871 59.2929032,70.6890323 58.4670968,71.8451613 C56.8154839,73.9922581 57.3109677,77.2954839 59.6232258,79.2774194 L59.6232258,79.2774194 L59.6232258,79.2774194 C59.7883871,79.2774194 59.7883871,79.4425806 59.9535484,79.4425806 C60.283871,79.6077419 60.4490323,79.9380645 60.7793548,80.1032258 C61.7703226,80.763871 62.596129,81.2593548 63.5870968,81.7548387 C64.0825806,81.92 64.5780645,82.2503226 65.0735484,82.5806452 L65.0735484,82.5806452 C68.0464516,84.3974194 70.523871,85.883871 72.5058065,87.7006452 C73.3316129,88.5264516 73.3316129,89.3522581 73.3316129,90.1780645 L73.3316129,90.5083871 L73.3316129,90.5083871 L74.9832258,91.9948387 C74.6529032,92.4903226 74.3225806,92.8206452 74.1574194,93.316129 C65.8993548,106.363871 62.7612903,121.723871 64.9083871,136.91871 L62.7612903,137.579355 C62.7612903,137.744516 62.596129,137.744516 62.596129,137.909677 C62.2658065,138.570323 61.7703226,139.230968 60.7793548,139.726452 C58.3019355,140.552258 55.3290323,140.882581 51.8606452,141.212903 L51.6954839,141.212903 C51.2,141.212903 50.5393548,141.212903 50.043871,141.378065 C49.0529032,141.378065 48.0619355,141.543226 46.9058065,141.708387 C46.5754839,141.708387 46.2451613,141.873548 45.9148387,141.873548 C45.7496774,141.873548 45.5845161,141.873548 45.4193548,142.03871 L45.4193548,142.03871 L45.4193548,142.03871 C42.4464516,142.699355 40.6296774,145.507097 41.1251613,148.149677 C41.6206452,150.461935 43.7677419,151.948387 46.4103226,151.948387 C46.9058065,151.948387 47.236129,151.948387 47.7316129,151.783226 L47.7316129,151.783226 L47.7316129,151.783226 C47.8967742,151.783226 48.0619355,151.783226 48.0619355,151.618065 C48.3922581,151.618065 48.7225806,151.452903 49.0529032,151.452903 C50.2090323,151.122581 51.0348387,150.792258 52.0258065,150.296774 C52.5212903,150.131613 53.0167742,149.80129 53.5122581,149.636129 L53.6774194,149.636129 C56.8154839,148.48 59.6232258,147.489032 62.2658065,147.15871 L62.596129,147.15871 C63.5870968,147.15871 64.2477419,147.654194 64.7432258,147.984516 C64.9083871,147.984516 64.9083871,148.149677 65.0735484,148.149677 L65.0735484,148.149677 L67.3858065,147.819355 C71.3496774,160.04129 78.9470968,170.941935 89.0219355,178.869677 C91.3341935,180.686452 93.6464516,182.172903 96.123871,183.659355 L95.1329032,185.806452 C95.1329032,185.971613 95.2980645,185.971613 95.2980645,186.136774 C95.6283871,186.797419 95.9587097,187.623226 95.6283871,188.779355 C94.6374194,191.256774 93.1509677,193.734194 91.3341935,196.541935 L91.3341935,196.707097 C91.003871,197.202581 90.6735484,197.532903 90.3432258,198.028387 C89.6825806,198.854194 89.1870968,199.68 88.5264516,200.670968 C88.3612903,200.836129 88.196129,201.166452 88.0309677,201.496774 C88.0309677,201.661935 87.8658065,201.827097 87.8658065,201.827097 L87.8658065,201.827097 L87.8658065,201.827097 C86.5445161,204.634839 87.5354839,207.772903 90.0129032,208.929032 C90.6735484,209.259355 91.3341935,209.424516 91.9948387,209.424516 C93.9767742,209.424516 95.9587097,208.103226 96.9496774,206.286452 L96.9496774,206.286452 L96.9496774,206.286452 C96.9496774,206.12129 97.1148387,205.956129 97.1148387,205.956129 C97.28,205.625806 97.4451613,205.295484 97.6103226,205.130323 C98.1058065,203.974194 98.2709677,203.148387 98.6012903,202.157419 C98.7664516,201.661935 98.9316129,201.166452 99.0967742,200.670968 L99.0967742,200.670968 C100.252903,197.367742 101.07871,194.725161 102.565161,192.412903 C103.225806,191.421935 104.051613,191.256774 104.712258,190.926452 C104.877419,190.926452 104.877419,190.926452 105.042581,190.76129 L105.042581,190.76129 L106.19871,188.614194 C113.465806,191.421935 121.393548,192.908387 129.32129,192.908387 C134.110968,192.908387 139.065806,192.412903 143.690323,191.256774 C146.663226,190.596129 149.470968,189.770323 152.27871,188.779355 L153.269677,190.596129 C153.434839,190.596129 153.434839,190.596129 153.6,190.76129 C154.425806,190.926452 155.086452,191.256774 155.747097,192.247742 C157.068387,194.56 158.059355,197.367742 159.215484,200.505806 L159.215484,200.670968 C159.380645,201.166452 159.545806,201.661935 159.710968,202.157419 C160.04129,203.148387 160.206452,204.139355 160.701935,205.130323 C160.867097,205.460645 161.032258,205.625806 161.197419,205.956129 C161.197419,206.12129 161.362581,206.286452 161.362581,206.286452 L161.362581,206.286452 L161.362581,206.286452 C162.353548,208.268387 164.335484,209.424516 166.317419,209.424516 C166.978065,209.424516 167.63871,209.259355 168.299355,208.929032 C169.455484,208.268387 170.446452,207.277419 170.776774,205.956129 C171.107097,204.634839 171.107097,203.148387 170.446452,201.827097 L170.446452,201.827097 L170.446452,201.827097 C170.446452,201.661935 170.28129,201.661935 170.28129,201.496774 C170.116129,201.166452 169.950968,200.836129 169.785806,200.670968 C169.290323,199.68 168.629677,198.854194 167.969032,198.028387 C167.63871,197.532903 167.308387,197.202581 166.978065,196.707097 L166.978065,196.541935 C165.16129,193.734194 163.509677,191.256774 162.683871,188.779355 C162.353548,187.623226 162.683871,186.962581 162.849032,186.136774 C162.849032,185.971613 163.014194,185.971613 163.014194,185.806452 L163.014194,185.806452 L162.188387,183.824516 C170.941935,178.704516 178.374194,171.437419 183.989677,162.51871 C186.962581,157.894194 189.274839,152.774194 190.926452,147.654194 L192.908387,147.984516 C193.073548,147.984516 193.073548,147.819355 193.23871,147.819355 C193.899355,147.489032 194.394839,146.993548 195.385806,146.993548 L195.716129,146.993548 C198.35871,147.323871 201.166452,148.314839 204.304516,149.470968 L204.469677,149.470968 C204.965161,149.636129 205.460645,149.966452 205.956129,150.131613 C206.947097,150.627097 207.772903,150.957419 208.929032,151.287742 C209.259355,151.287742 209.589677,151.452903 209.92,151.452903 C210.085161,151.452903 210.250323,151.452903 210.415484,151.618065 L210.415484,151.618065 C210.910968,151.783226 211.24129,151.783226 211.736774,151.783226 C214.214194,151.783226 216.36129,150.131613 217.021935,147.984516 C217.021935,146.002581 215.205161,143.36 212.232258,142.534194 L212.232258,142.534194 Z M135.762581,134.44129 L128.495484,137.909677 L121.228387,134.44129 L119.411613,126.67871 L124.366452,120.402581 L132.459355,120.402581 L137.414194,126.67871 L135.762581,134.44129 L135.762581,134.44129 Z M178.869677,117.264516 C180.190968,122.88 180.52129,128.495484 180.025806,133.945806 L154.756129,126.67871 C152.443871,126.018065 151.122581,123.705806 151.618065,121.393548 C151.783226,120.732903 152.113548,120.072258 152.609032,119.576774 L172.593548,101.574194 C175.40129,106.19871 177.548387,111.483871 178.869677,117.264516 L178.869677,117.264516 Z M164.665806,91.6645161 L143.029677,107.024516 C141.212903,108.180645 138.735484,107.850323 137.249032,106.033548 C136.753548,105.538065 136.588387,104.877419 136.423226,104.216774 L134.936774,77.2954839 C146.332903,78.6167742 156.738065,83.7367742 164.665806,91.6645161 L164.665806,91.6645161 Z M116.769032,78.1212903 C118.585806,77.7909677 120.237419,77.4606452 122.054194,77.1303226 L120.567742,103.556129 C120.402581,105.868387 118.585806,107.850323 116.108387,107.850323 C115.447742,107.850323 114.621935,107.685161 114.126452,107.354839 L92.16,91.6645161 C98.9316129,84.8929032 107.354839,80.2683871 116.769032,78.1212903 L116.769032,78.1212903 Z M84.2322581,101.574194 L103.886452,119.08129 C105.703226,120.567742 105.868387,123.375484 104.381935,125.192258 C103.886452,125.852903 103.225806,126.348387 102.4,126.513548 L76.8,133.945806 C75.8090323,122.714839 78.2864516,111.31871 84.2322581,101.574194 L84.2322581,101.574194 Z M79.7729032,146.332903 L106.033548,141.873548 C108.180645,141.708387 110.162581,143.194839 110.658065,145.341935 C110.823226,146.332903 110.823226,147.15871 110.492903,147.984516 L110.492903,147.984516 L100.418065,172.263226 C91.1690323,166.317419 83.7367742,157.233548 79.7729032,146.332903 L79.7729032,146.332903 Z M140.056774,179.2 C136.258065,180.025806 132.459355,180.52129 128.495484,180.52129 C122.714839,180.52129 117.099355,179.530323 111.814194,177.87871 L124.861935,154.260645 C126.183226,152.774194 128.330323,152.113548 130.147097,153.104516 C130.972903,153.6 131.633548,154.260645 132.129032,154.92129 L132.129032,154.92129 L144.846452,177.87871 C143.36,178.374194 141.708387,178.704516 140.056774,179.2 L140.056774,179.2 Z M172.263226,156.242581 C168.134194,162.849032 162.683871,168.134194 156.407742,172.263226 L146.002581,147.323871 C145.507097,145.341935 146.332903,143.194839 148.314839,142.203871 C148.975484,141.873548 149.80129,141.708387 150.627097,141.708387 L177.052903,146.167742 C176.061935,149.80129 174.410323,153.104516 172.263226,156.242581 L172.263226,156.242581 Z" fill="#FFFFFF"></path>
        </g>
        <g id="ScalaIcon">
        </g>
        <g id="PythonIcon">
        </g>
        <g id="JenkinsIcon">
        </g>
        <g id="IconGrid">
          <use xlink:href="#AWSIcon" transform="translate(10, 100) scale(.3)" ></use>
          <use xlink:href="#GitIcon" transform="translate(160, 100) scale(.3)" ></use>
          <use xlink:href="#KubernetesIcon" transform="translate(320, 100) scale(.3)" ></use>
          <use xlink:href="#DockerIcon" transform="translate(480, 100) scale(.3)" ></use>
          <use xlink:href="#TerraformIcon" transform="translate(640, 100) scale(.3)" ></use>
          <use xlink:href="#ScalaIcon" transform="translate(800, 100) scale(.3)" ></use>
          <use xlink:href="#GolangIcon" transform="translate(960, 100) scale(.3)" ></use>
          <use xlink:href="#PythonIcon" transform="translate(1120, 100) scale(.3)" ></use>
          <use xlink:href="#JenkinsIcon" transform="translate(1280, 100) scale(.3)" ></use>
        </g>

        
        <g id="sweetnewgrid">

        </g>
    </defs>

</svg>