<svg xmlns="http://www.w3.org/2000/svg" width="256" height="256" viewBox="0 0 100 100"><path fill="#855a29" d="M58.06 68.31L58.06 68.31Q58.06 71.88 56.71 75Q55.37 78.13 53.03 80.47Q50.68 82.81 47.56 84.16Q44.43 85.50 40.87 85.50L40.87 85.50L38.87 85.50Q35.30 85.50 32.15 84.16Q29.00 82.81 26.66 80.47Q24.32 78.13 22.97 75Q21.63 71.88 21.63 68.31L21.63 68.31L21.63 65.53L27.93 64.50L27.93 68.31Q27.93 70.65 28.81 72.68Q29.69 74.71 31.23 76.25Q32.76 77.78 34.79 78.66Q36.82 79.54 39.16 79.54L39.16 79.54L40.58 79.54Q42.87 79.54 44.92 78.66Q46.97 77.78 48.49 76.25Q50 74.71 50.88 72.68Q51.76 70.65 51.76 68.31L51.76 68.31L51.76 14.50L58.06 14.50L58.06 68.31ZM78.37 84.52L72.07 84.52L72.07 14.50L78.37 14.50L78.37 84.52Z"></path></svg>