<svg xmlns="http://www.w3.org/2000/svg" width="256" height="256" viewBox="0 0 100 100"><rect width="100" height="100" rx="0" fill="#6b8dba"></rect><path d="M51.10 17.80L51.10 60.24Q51.10 65.59 49.78 69.69Q48.45 73.78 46.00 76.57Q43.54 79.36 40.01 80.78Q36.48 82.20 32.07 82.20L32.07 82.20Q30.04 82.20 27.97 81.88Q25.90 81.57 23.70 80.89L23.70 80.89Q23.79 80.26 23.86 79.63Q23.92 79.00 23.97 78.37L23.97 78.37Q24.06 77.97 24.31 77.65Q24.55 77.34 25.18 77.34L25.18 77.34Q25.59 77.34 26.15 77.49Q26.71 77.65 27.50 77.83Q28.29 78.01 29.30 78.17Q30.31 78.33 31.66 78.33L31.66 78.33Q35.08 78.33 37.83 77.25Q40.57 76.17 42.51 73.94Q44.44 71.71 45.45 68.31Q46.47 64.92 46.47 60.33L46.47 60.33L46.47 17.80L51.10 17.80ZM76.30 17.80L76.30 81.48L71.67 81.48L71.67 17.80L76.30 17.80Z" fill="#ba986b"></path></svg>